HIERARCHY
ROOT hip
{
  OFFSET 0 0 0
  CHANNELS 6 Xposition Yposition Zposition Zrotation Yrotation Xrotation
  JOINT abdomen
  {
    OFFSET 0 20.6881 -0.73152
    CHANNELS 3 Zrotation Xrotation Yrotation
    JOINT chest
    {
      OFFSET 0 11.7043 -0.48768
      CHANNELS 3 Zrotation Xrotation Yrotation
      JOINT neck
      {
        OFFSET 0 22.1894 -2.19456
        CHANNELS 3 Zrotation Xrotation Yrotation
        JOINT head
        {
          OFFSET -0.24384 7.07133 1.2192
          CHANNELS 3 Zrotation Xrotation Yrotation
          JOINT leftEye
          {
            OFFSET 4.14528 8.04674 8.04672
            CHANNELS 3 Zrotation Xrotation Yrotation
            End Site
            {
              OFFSET 1 0 0
            }
          }
          JOINT rightEye
          {
            OFFSET -3.6576 8.04674 8.04672
            CHANNELS 3 Zrotation Xrotation Yrotation
            End Site
            {
              OFFSET 1 0 0
            }
          }
        }
      }
      JOINT rCollar
      {
        OFFSET -2.68224 19.2634 -4.8768
        CHANNELS 3 Zrotation Xrotation Yrotation
        JOINT rShldr
        {
          OFFSET -8.77824 -1.95073 1.46304
          CHANNELS 3 Zrotation Xrotation Yrotation
          JOINT rForeArm
          {
            OFFSET -28.1742 -1.7115 0.48768
            CHANNELS 3 Zrotation Xrotation Yrotation
            JOINT rHand
            {
              OFFSET -22.5879 0.773209 7.07136
              CHANNELS 3 Zrotation Xrotation Yrotation
              JOINT rThumb1
              {
                OFFSET -1.2192 -0.487915 3.41376
                CHANNELS 3 Zrotation Xrotation Yrotation
                JOINT rThumb2
                {
                  OFFSET -3.37035 -0.52449 3.41376
                  CHANNELS 3 Zrotation Xrotation Yrotation
                  End Site
                  {
                    OFFSET -1.78271 -1.18214 1.43049
                  }
                }
              }
              JOINT rIndex1
              {
                OFFSET -7.75947 0.938293 5.60832
                CHANNELS 3 Zrotation Xrotation Yrotation
                JOINT rIndex2
                {
                  OFFSET -2.54057 -0.884171 1.56538
                  CHANNELS 3 Zrotation Xrotation Yrotation
                  End Site
                  {
                    OFFSET -1.62519 -0.234802 1.16502
                  }
                }
              }
              JOINT rMid1
              {
                OFFSET -8.24714 1.18213 3.41376
                CHANNELS 3 Zrotation Xrotation Yrotation
                JOINT rMid2
                {
                  OFFSET -3.10165 -0.590103 1.0647
                  CHANNELS 3 Zrotation Xrotation Yrotation
                  End Site
                  {
                    OFFSET -2.48547 -0.328903 0.83742
                  }
                }
              }
              JOINT rRing1
              {
                OFFSET -8.82822 0.546677 1.51678
                CHANNELS 3 Zrotation Xrotation Yrotation
                JOINT rRing2
                {
                  OFFSET -2.60934 -0.819778 -0.0198488
                  CHANNELS 3 Zrotation Xrotation Yrotation
                  End Site
                  {
                    OFFSET -2.33842 -0.294052 0.168128
                  }
                }
              }
              JOINT rPinky1
              {
                OFFSET -8.27202 -0.0477905 -0.4584
                CHANNELS 3 Zrotation Xrotation Yrotation
                JOINT rPinky2
                {
                  OFFSET -1.82734 -0.647385 -0.700984
                  CHANNELS 3 Zrotation Xrotation Yrotation
                  End Site
                  {
                    OFFSET -1.69225 -0.51767 -0.607171
                  }
                }
              }
            }
          }
        }
      }
      JOINT lCollar
      {
        OFFSET 2.68224 19.2634 -4.8768
        CHANNELS 3 Zrotation Xrotation Yrotation
        JOINT lShldr
        {
          OFFSET 8.77824 -1.95073 1.46304
          CHANNELS 3 Zrotation Xrotation Yrotation
          JOINT lForeArm
          {
            OFFSET 28.1742 -1.7115 0.48768
            CHANNELS 3 Zrotation Xrotation Yrotation
            JOINT lHand
            {
              OFFSET 22.5879 0.773209 7.07136
              CHANNELS 3 Zrotation Xrotation Yrotation
              JOINT lThumb1
              {
                OFFSET 1.2192 -0.487915 3.41376
                CHANNELS 3 Zrotation Xrotation Yrotation
                JOINT lThumb2
                {
                  OFFSET 3.37035 -0.52449 3.41376
                  CHANNELS 3 Zrotation Xrotation Yrotation
                  End Site
                  {
                    OFFSET 1.78271 -1.18214 1.43049
                  }
                }
              }
              JOINT lIndex1
              {
                OFFSET 7.75947 0.938293 5.60832
                CHANNELS 3 Zrotation Xrotation Yrotation
                JOINT lIndex2
                {
                  OFFSET 2.54057 -0.884171 1.56538
                  CHANNELS 3 Zrotation Xrotation Yrotation
                  End Site
                  {
                    OFFSET 1.62519 -0.234802 1.16502
                  }
                }
              }
              JOINT lMid1
              {
                OFFSET 8.24714 1.18213 3.41376
                CHANNELS 3 Zrotation Xrotation Yrotation
                JOINT lMid2
                {
                  OFFSET 3.10165 -0.590103 1.0647
                  CHANNELS 3 Zrotation Xrotation Yrotation
                  End Site
                  {
                    OFFSET 2.48547 -0.328903 0.83742
                  }
                }
              }
              JOINT lRing1
              {
                OFFSET 8.82822 0.546677 1.51678
                CHANNELS 3 Zrotation Xrotation Yrotation
                JOINT lRing2
                {
                  OFFSET 2.60934 -0.819778 -0.0198488
                  CHANNELS 3 Zrotation Xrotation Yrotation
                  End Site
                  {
                    OFFSET 2.33842 -0.294052 0.168128
                  }
                }
              }
              JOINT lPinky1
              {
                OFFSET 8.27202 -0.0477905 -0.4584
                CHANNELS 3 Zrotation Xrotation Yrotation
                JOINT lPinky2
                {
                  OFFSET 1.82734 -0.647385 -0.700984
                  CHANNELS 3 Zrotation Xrotation Yrotation
                  End Site
                  {
                    OFFSET 1.69225 -0.51767 -0.607171
                  }
                }
              }
            }
          }
        }
      }
    }
  }
  JOINT rButtock
  {
    OFFSET -8.77824 4.35084 1.2192
    CHANNELS 3 Zrotation Xrotation Yrotation
    JOINT rThigh
    {
      OFFSET 0 -1.70687 -2.19456
      CHANNELS 3 Zrotation Xrotation Yrotation
      JOINT rShin
      {
        OFFSET 0 -36.8199 0.73152
        CHANNELS 3 Zrotation Xrotation Yrotation
        JOINT rFoot
        {
          OFFSET 0.73152 -45.1104 -5.12064
          CHANNELS 3 Zrotation Xrotation Yrotation
          End Site
          {
            OFFSET -1.1221 -3.69964 12.103
          }
        }
      }
    }
  }
  JOINT lButtock
  {
    OFFSET 8.77824 4.35084 1.2192
    CHANNELS 3 Zrotation Xrotation Yrotation
    JOINT lThigh
    {
      OFFSET 0 -1.70687 -2.19456
      CHANNELS 3 Zrotation Xrotation Yrotation
      JOINT lShin
      {
        OFFSET 0 -36.8199 0.73152
        CHANNELS 3 Zrotation Xrotation Yrotation
        JOINT lFoot
        {
          OFFSET -0.73152 -45.1104 -5.12064
          CHANNELS 3 Zrotation Xrotation Yrotation
          End Site
          {
            OFFSET 1.1221 -3.69964 12.103
          }
        }
      }
    }
  }
}
MOTION
Frames:	4
Frame Time:	0.00833333
1.00657 83.3602 -18.395 -16.4829 2.5974 -0.3841 -15.9947 10.8648 -2.04285 3.49306 -3.44894 -1.00327 4.57663 1.27076 2.69354 13.1804 -5.25541 4.83037 -0.0 0.0 0.0 -0.0 0.0 0.0 8.10493e-13 -3.80406e-14 -8.42494e-14 10.101 -23.7896 -20.9458 -16.8028 -9.45498 31.3864 -0.0445838 -6.01513 -0.848521 4.4891e-09 -8.69266e-10 -1.83492e-09 7.76231e-09 -1.51179e-09 -3.16851e-09 4.4891e-09 -8.69272e-10 -1.83493e-09 7.73091 5.47488 0.417314 4.4891e-09 -8.69273e-10 -1.83493e-09 2.90554 0.965183 0.102902 4.48911e-09 -8.69272e-10 -1.83493e-09 10.2786 0.731801 0.0259123 4.48909e-09 -8.69268e-10 -1.83493e-09 2.22167 -0.733487 -0.20892 8.10449e-13 -3.80567e-14 -8.43503e-14 -28.6954 -26.5597 11.2636 18.2124 -10.9168 -34.4985 0.128309 -10.159 1.44307 1.93705e-09 9.27947e-10 -1.55819e-09 3.35553e-09 1.60614e-09 -2.68942e-09 1.93704e-09 9.27951e-10 -1.55818e-09 -7.73091 5.47488 -0.417314 1.93705e-09 9.27952e-10 -1.55819e-09 -2.90554 0.965183 -0.102902 1.93704e-09 9.27953e-10 -1.55819e-09 -10.2786 0.731801 -0.0259123 1.93705e-09 9.27957e-10 -1.5582e-09 -2.22167 -0.733487 0.20892 -2.03217e-16 0.0 -3.88251e-19 3.21334 -13.5843 -12.3875 -0.507822 46.5606 0.85087 -0.337662 5.18884 -1.25622 2.03217e-16 0.0 3.88251e-19 20.9413 -15.5341 0.271833 0.251606 38.4006 -0.707893 5.14969 -11.3179 18.108
0.948591 83.4361 -18.2718 -16.7809 2.9928 -0.2817 -16.1872 11.1115 -2.15838 3.46571 -3.44038 -1.05172 4.51727 1.29469 2.67278 13.8347 -5.4181 4.86102 -0.0 0.0 0.0 -0.0 0.0 0.0 8.13608e-13 -5.0878e-14 -1.14401e-13 9.96883 -23.9463 -21.1772 -16.7987 -9.45091 31.3775 -0.0449389 -6.03903 -0.851918 3.86824e-09 -1.02081e-09 -1.95706e-09 6.68916e-09 -1.77426e-09 -3.3819e-09 3.86825e-09 -1.02081e-09 -1.95706e-09 7.73091 5.47488 0.417314 3.86824e-09 -1.02082e-09 -1.95707e-09 2.90554 0.965183 0.102902 3.86825e-09 -1.02082e-09 -1.95707e-09 10.2786 0.731801 0.0259123 3.86823e-09 -1.02081e-09 -1.95707e-09 2.22167 -0.733487 -0.20892 8.13548e-13 -5.08997e-14 -1.145e-13 -28.9888 -26.5545 10.9557 18.1994 -10.9026 -34.469 0.127042 -10.1107 1.43605 1.17099e-09 6.5431e-10 -1.49999e-09 2.03004e-09 1.13391e-09 -2.59355e-09 1.17099e-09 6.54314e-10 -1.49998e-09 -7.73091 5.47488 -0.417314 1.17099e-09 6.54315e-10 -1.49999e-09 -2.90554 0.965183 -0.102902 1.17098e-09 6.54316e-10 -1.49999e-09 -10.2786 0.731801 -0.0259123 1.17099e-09 6.54319e-10 -1.5e-09 -2.22167 -0.733487 0.20892 -2.03217e-16 0.0 -3.88251e-19 3.42897 -13.8967 -12.5621 -0.516251 46.8222 0.855578 -0.322807 5.86746 -1.243 2.03217e-16 0.0 3.88251e-19 21.184 -15.6376 -0.0373338 0.246958 38.2265 -0.70182 5.10471 -11.2998 18.0324
0.893952 83.5133 -18.144 -17.0475 3.3703 -0.1772 -16.4123 11.3304 -2.2517 3.45517 -3.42133 -1.09349 4.45563 1.2979 2.64708 14.459 -5.51613 4.87345 -0.0 0.0 0.0 -0.0 0.0 0.0 8.03265e-13 -7.12047e-14 -9.50979e-14 9.835 -24.0767 -21.4035 -16.7905 -9.44289 31.3598 -0.0448126 -6.03053 -0.850711 4.25793e-09 -9.9421e-10 -1.89078e-09 7.36259e-09 -1.72776e-09 -3.26599e-09 4.25794e-09 -9.94214e-10 -1.89078e-09 7.73091 5.47488 0.417314 4.25793e-09 -9.94216e-10 -1.89079e-09 2.90554 0.965183 0.102902 4.25794e-09 -9.94215e-10 -1.89079e-09 10.2786 0.731801 0.0259123 4.25792e-09 -9.9421e-10 -1.89079e-09 2.22167 -0.733487 -0.20892 8.03184e-13 -7.12371e-14 -9.5233e-14 -29.2946 -26.5381 10.6516 18.1793 -10.8807 -34.4235 0.124434 -10.0094 1.42135 1.31224e-09 7.5305e-10 -1.5329e-09 2.27492e-09 1.30519e-09 -2.64985e-09 1.31224e-09 7.53052e-10 -1.53289e-09 -7.73091 5.47488 -0.417314 1.31224e-09 7.53051e-10 -1.5329e-09 -2.90554 0.965183 -0.102902 1.31223e-09 7.53053e-10 -1.5329e-09 -10.2786 0.731801 -0.0259123 1.31224e-09 7.53055e-10 -1.53291e-09 -2.22167 -0.733487 0.20892 -2.03217e-16 0.0 -3.88251e-19 3.60556 -14.2328 -12.6869 -0.524941 47.09 0.860711 -0.307957 6.56096 -1.20096 2.03217e-16 0.0 3.88251e-19 21.3809 -15.7247 -0.344773 0.24178 38.0273 -0.695436 5.06631 -11.2817 17.9827
0.844089 83.5888 -18.0127 -17.2815 3.7234 -0.0644 -16.6578 11.5314 -2.3275 3.45632 -3.3929 -1.13014 4.39125 1.28166 2.61709 15.0641 -5.5589 4.87124 -0.0 0.0 0.0 -0.0 0.0 0.0 7.74847e-13 -9.68353e-14 -4.52328e-14 9.70092 -24.1896 -21.6283 -16.7782 -9.43083 31.3333 -0.0442865 -5.99537 -0.845713 5.20282e-09 -8.50518e-10 -1.69157e-09 8.99554e-09 -1.47811e-09 -2.91816e-09 5.20282e-09 -8.5052e-10 -1.69157e-09 7.73091 5.47488 0.417314 5.20282e-09 -8.50521e-10 -1.69157e-09 2.90554 0.965183 0.102902 5.20282e-09 -8.5052e-10 -1.69157e-09 10.2786 0.731801 0.0259123 5.20282e-09 -8.50517e-10 -1.69157e-09 2.22167 -0.733487 -0.20892 7.74737e-13 -9.68809e-14 -4.54316e-14 -29.6128 -26.5161 10.3451 18.1537 -10.8529 -34.3658 0.120801 -9.86454 1.40036 1.96327e-09 1.06513e-09 -1.60602e-09 3.40217e-09 1.84521e-09 -2.77262e-09 1.96327e-09 1.06513e-09 -1.60601e-09 -7.73091 5.47488 -0.417314 1.96327e-09 1.06513e-09 -1.60602e-09 -2.90554 0.965183 -0.102902 1.96326e-09 1.06513e-09 -1.60602e-09 -10.2786 0.731801 -0.0259123 1.96327e-09 1.06513e-09 -1.60602e-09 -2.22167 -0.733487 0.20892 -2.03217e-16 0.0 -3.88251e-19 3.75425 -14.5836 -12.7737 -0.533829 47.3613 0.866156 -0.294238 7.26124 -1.13477 2.03217e-16 0.0 3.88251e-19 21.5425 -15.7996 -0.657026 0.236234 37.8104 -0.688893 5.03421 -11.263 17.9571
